<svg xmlns="http://www.w3.org/2000/svg" version="1.1" xmlns:xlink="http://www.w3.org/1999/xlink" xmlns:svgjs="http://svgjs.dev/svgjs" width="1000" height="325" viewBox="0 0 1000 325"><g transform="matrix(1,0,0,1,-0.6060606060606233,-0.32130730534646545)"><svg viewBox="0 0 396 129" data-background-color="#ffffff" preserveAspectRatio="xMidYMid meet" height="325" width="1000" xmlns="http://www.w3.org/2000/svg" xmlns:xlink="http://www.w3.org/1999/xlink"><g id="tight-bounds" transform="matrix(1,0,0,1,0.2400000000000091,0.12753428427598124)"><svg viewBox="0 0 395.52 128.74493143144804" height="128.74493143144804" width="395.52"><g><svg viewBox="0 0 667.6282699433172 217.3183551667391" height="128.74493143144804" width="395.52"><g transform="matrix(1,0,0,1,270.13066994331723,0)"><svg viewBox="0 0 397.4975999999999 217.3183551667391" height="217.3183551667391" width="397.4975999999999"><g id="textblocktransform"><svg viewBox="0 0 397.4975999999999 217.3183551667391" height="217.3183551667391" width="397.4975999999999" id="textblock"><g><rect width="397.4975999999999" height="9.350272500747206" x="0" y="114.69807996482103" fill="#ffffff" opacity="1" stroke-width="0" stroke="transparent" fill-opacity="1" class="rect-qz-0" data-fill-palette-color="primary" rx="1%" id="qz-0" data-palette-color="#729343"></rect></g><g transform="matrix(1,0,0,1,0.9887999999999693,0)"><svg viewBox="0 0 395.52 103.68336105032824" height="103.68336105032824" width="395.52"><g transform="matrix(1,0,0,1,0,0)"><svg width="395.52" viewBox="3.5 -29.45 114.25 29.95" height="103.68336105032824" data-palette-color="#729343"><path d="M26.55 0L12.65 0Q9.1 0 7.1-1 5.1-2 4.3-4 3.5-6 3.5-8.95L3.5-8.95 3.5-20.1Q3.5-24.9 5.65-27.18 7.8-29.45 12.65-29.45L12.65-29.45 27.7-29.45Q31.15-29.45 32.98-29.08 34.8-28.7 34.8-28.3L34.8-28.3 33.8-24.15Q32.95-24.3 28.78-24.48 24.6-24.65 16.65-24.65L16.65-24.65 14.1-24.65Q10.1-24.65 10.1-21.1L10.1-21.1 10.1-8.35Q10.1-6.65 10.98-5.73 11.85-4.8 14.1-4.8L14.1-4.8 16.15-4.8Q24.45-4.8 29.03-4.98 33.6-5.15 34.7-5.35L34.7-5.35 36.75-2.05Q36.75-1.8 35.93-1.3 35.1-0.8 32.9-0.4 30.7 0 26.55 0L26.55 0ZM45.05 0L37.75 0 52.4-29.4 62.25-29.4 76.85 0 69.15 0 66.2-6.35 48.3-6.35 45.05 0ZM57-24.9L50.1-11.25 64.35-11.25 57.5-24.9 57-24.9ZM112.8 0.5L112.8 0.5Q110.8 0.5 108.87-0.13 106.94-0.75 104.5-3.2L104.5-3.2 100.89-6.8Q98.69-9.05 96.07-10.1 93.44-11.15 89.5-11.15L89.5-11.15 87.94-11.15 87.94 0 81.34 0 81.34-25.4 80.84-29.45 103-29.45Q106.19-29.45 108.02-28.6 109.84-27.75 110.72-26.38 111.59-25 111.84-23.45 112.09-21.9 112.09-20.5L112.09-20.5 112.09-19.55Q112.09-18.45 111.8-17.1 111.5-15.75 110.65-14.45 109.8-13.15 108.22-12.25 106.64-11.35 104.09-11.2L104.09-11.2Q104.75-10.85 105.75-10.13 106.75-9.4 107.82-8.55 108.9-7.7 109.8-7 110.69-6.3 111.19-6L111.19-6Q113-4.95 114.4-4.55 115.8-4.15 116.69-4.1 117.59-4.05 117.75-4.05L117.75-4.05 116.75 0Q116.3 0.15 115.25 0.33 114.19 0.5 112.8 0.5ZM95.44-15.7L95.44-15.7Q97.34-15.7 98.84-15.78 100.34-15.85 101.55-15.95L101.55-15.95Q103.75-16.2 104.62-17.18 105.5-18.15 105.5-19.7L105.5-19.7 105.5-20.85Q105.5-22.45 104.64-23.55 103.8-24.65 101.59-24.65L101.59-24.65 87.94-24.65 87.94-15.95Q90.14-15.8 92-15.75 93.84-15.7 95.44-15.7Z" opacity="1" transform="matrix(1,0,0,1,0,0)" fill="#ffffff" class="wordmark-text-0" data-fill-palette-color="primary" id="text-0"></path></svg></g></svg></g><g transform="matrix(1,0,0,1,0.9887999999999693,135.06307138006102)"><svg viewBox="0 0 395.52 82.25528378667809" height="82.25528378667809" width="395.52"><g transform="matrix(1,0,0,1,0,0)"><svg width="395.52" viewBox="2 -37.7 233.43 48.550000000000004" height="82.25528378667809" data-palette-color="#096a2e"><path d="M29.05-34.55L31.25 0 25.2 0 24.6-14.6Q24.3-22.6 24.3-26L24.3-26 24.35-28.6 19.6-3.8 13.6-3.8 8.65-28.65Q8.7-27.15 8.7-24.05L8.7-24.05Q8.7-18.8 8.5-14.4L8.5-14.4 7.95 0 2 0 4.2-34.55 12.2-34.55 16.7-10.2 20.9-34.55 29.05-34.55ZM52.95-6.4Q52.95-5.1 53.3-4.48 53.65-3.85 54.45-3.45L54.45-3.45 53.2 0.65Q51.15 0.4 49.92-0.45 48.7-1.3 48.1-3.05L48.1-3.05Q45.8 0.75 41.65 0.75L41.65 0.75Q38.35 0.75 36.4-1.48 34.45-3.7 34.45-7.4L34.45-7.4Q34.45-11.7 37.12-13.95 39.8-16.2 44.9-16.2L44.9-16.2 46.95-16.2 46.95-18.05Q46.95-20.55 46.07-21.58 45.2-22.6 43.25-22.6L43.25-22.6Q40.9-22.6 37.4-21.3L37.4-21.3 36-25.3Q38-26.2 40.15-26.68 42.3-27.15 44.25-27.15L44.25-27.15Q52.95-27.15 52.95-18.35L52.95-18.35 52.95-6.4ZM43.3-3.7Q45.7-3.7 46.95-7L46.95-7 46.95-12.55 45.5-12.55Q42.95-12.55 41.77-11.4 40.6-10.25 40.6-7.85L40.6-7.85Q40.6-5.8 41.3-4.75 42-3.7 43.3-3.7L43.3-3.7ZM70.4-27.1Q71.55-27.1 72.45-26.75L72.45-26.75 71.45-20.85Q70.45-21.1 69.6-21.1L69.6-21.1Q67.7-21.1 66.6-19.45 65.5-17.8 64.9-14.55L64.9-14.55 64.9 0 58.75 0 58.75-26.45 64.1-26.45 64.55-21.85Q66.4-27.1 70.4-27.1L70.4-27.1ZM75.29-37.05L81.44-37.7 81.44 0 75.29 0 75.29-37.05ZM88.79-26.45L94.79-26.45 87.79-14.75 95.39 0 88.79 0 81.69-14.45 88.79-26.45ZM116.79-13.85Q116.79-13.4 116.64-11.3L116.64-11.3 102.99-11.3Q103.19-7.2 104.42-5.58 105.64-3.95 107.89-3.95L107.89-3.95Q109.44-3.95 110.69-4.48 111.94-5 113.39-6.15L113.39-6.15 115.94-2.65Q112.44 0.75 107.54 0.75L107.54 0.75Q102.34 0.75 99.57-2.85 96.79-6.45 96.79-13L96.79-13Q96.79-19.55 99.44-23.35 102.09-27.15 106.94-27.15L106.94-27.15Q111.59-27.15 114.19-23.78 116.79-20.4 116.79-13.85L116.79-13.85ZM110.79-15.3L110.79-15.65Q110.79-19.4 109.89-21.13 108.99-22.85 106.99-22.85L106.99-22.85Q105.14-22.85 104.17-21.18 103.19-19.5 102.99-15.3L102.99-15.3 110.79-15.3ZM132.24-5L134.39-1.2Q131.94 0.75 128.64 0.75L128.64 0.75Q125.19 0.75 123.39-1.23 121.59-3.2 121.59-6.6L121.59-6.6 121.59-22 118.49-22 118.49-26.45 121.59-26.45 121.59-32.3 127.74-33.05 127.74-26.45 132.74-26.45 132.14-22 127.74-22 127.74-6.6Q127.74-4.2 129.79-4.2L129.79-4.2Q130.44-4.2 130.94-4.38 131.44-4.55 132.24-5L132.24-5ZM149.14-27.15Q153.04-27.15 155.04-23.58 157.04-20 157.04-13.3L157.04-13.3Q157.04-6.8 154.76-3.03 152.49 0.75 148.44 0.75L148.44 0.75Q145.24 0.75 143.09-2.1L143.09-2.1 143.09 10.15 136.94 10.85 136.94-26.45 142.39-26.45 142.64-23.25Q143.94-25.25 145.54-26.2 147.14-27.15 149.14-27.15L149.14-27.15ZM146.79-3.95Q148.69-3.95 149.69-6.13 150.69-8.3 150.69-13.25L150.69-13.25Q150.69-18.45 149.84-20.5 148.99-22.55 147.19-22.55L147.19-22.55Q144.89-22.55 143.09-19.25L143.09-19.25 143.09-6.45Q144.69-3.95 146.79-3.95L146.79-3.95ZM167.23 0.75Q164.53 0.75 162.96-0.93 161.38-2.6 161.38-5.4L161.38-5.4 161.38-37.05 167.53-37.7 167.53-5.65Q167.53-5 167.83-4.6 168.13-4.2 168.73-4.2L168.73-4.2Q169.08-4.2 169.41-4.3 169.73-4.4 169.83-4.4L169.83-4.4 171.03-0.2Q169.33 0.75 167.23 0.75L167.23 0.75ZM190.98-6.4Q190.98-5.1 191.33-4.48 191.68-3.85 192.48-3.45L192.48-3.45 191.23 0.65Q189.18 0.4 187.96-0.45 186.73-1.3 186.13-3.05L186.13-3.05Q183.83 0.75 179.68 0.75L179.68 0.75Q176.38 0.75 174.43-1.48 172.48-3.7 172.48-7.4L172.48-7.4Q172.48-11.7 175.16-13.95 177.83-16.2 182.93-16.2L182.93-16.2 184.98-16.2 184.98-18.05Q184.98-20.55 184.11-21.58 183.23-22.6 181.28-22.6L181.28-22.6Q178.93-22.6 175.43-21.3L175.43-21.3 174.03-25.3Q176.03-26.2 178.18-26.68 180.33-27.15 182.28-27.15L182.28-27.15Q190.98-27.15 190.98-18.35L190.98-18.35 190.98-6.4ZM181.33-3.7Q183.73-3.7 184.98-7L184.98-7 184.98-12.55 183.53-12.55Q180.98-12.55 179.81-11.4 178.63-10.25 178.63-7.85L178.63-7.85Q178.63-5.8 179.33-4.75 180.03-3.7 181.33-3.7L181.33-3.7ZM206.28-27.15Q208.43-27.15 210.18-26.43 211.93-25.7 213.53-24.15L213.53-24.15 210.88-20.65Q209.78-21.55 208.8-21.98 207.83-22.4 206.68-22.4L206.68-22.4Q204.43-22.4 203.28-20.28 202.13-18.15 202.13-13.1L202.13-13.1Q202.13-8.2 203.3-6.2 204.48-4.2 206.68-4.2L206.68-4.2Q207.78-4.2 208.68-4.6 209.58-5 210.78-5.85L210.78-5.85 213.53-2.3Q210.33 0.75 206.38 0.75L206.38 0.75Q201.28 0.75 198.45-2.73 195.63-6.2 195.63-13L195.63-13Q195.63-17.4 196.93-20.6 198.23-23.8 200.65-25.48 203.08-27.15 206.28-27.15L206.28-27.15ZM235.43-13.85Q235.43-13.4 235.28-11.3L235.28-11.3 221.63-11.3Q221.83-7.2 223.05-5.58 224.28-3.95 226.53-3.95L226.53-3.95Q228.08-3.95 229.33-4.48 230.58-5 232.03-6.15L232.03-6.15 234.58-2.65Q231.08 0.75 226.18 0.75L226.18 0.75Q220.98 0.75 218.2-2.85 215.43-6.45 215.43-13L215.43-13Q215.43-19.55 218.08-23.35 220.73-27.15 225.58-27.15L225.58-27.15Q230.23-27.15 232.83-23.78 235.43-20.4 235.43-13.85L235.43-13.85ZM229.43-15.3L229.43-15.65Q229.43-19.4 228.53-21.13 227.63-22.85 225.63-22.85L225.63-22.85Q223.78-22.85 222.8-21.18 221.83-19.5 221.63-15.3L221.63-15.3 229.43-15.3Z" opacity="1" transform="matrix(1,0,0,1,0,0)" fill="#ffffff" class="slogan-text-1" data-fill-palette-color="secondary" id="text-1"></path></svg></g></svg></g></svg></g></svg></g><g transform="matrix(1,0,0,1,0,7.941235695369585)"><svg viewBox="0 0 245.65351679999995 201.43588377599994" height="201.43588377599994" width="245.65351679999995"><g><svg xmlns="http://www.w3.org/2000/svg" xmlns:xlink="http://www.w3.org/1999/xlink" version="1.1" x="0" y="0" viewBox="0 18 100 82" enable-background="new 0 0 100 100" xml:space="preserve" height="201.43588377599994" width="245.65351679999995" class="icon-icon-0" data-fill-palette-color="accent" id="icon-0"><path fill="#ffffff" d="M100 45.5c0-3.025-2.475-5.5-5.5-5.5h-6.577l-4.769-12.4c-1.185-3.08-4.75-6.342-7.924-7.249C75.23 20.352 67 18 50 18s-25.231 2.352-25.231 2.352c-3.173 0.907-6.738 4.168-7.923 7.249L12.077 40H5.5C2.475 40 0 42.475 0 45.5S2.475 51 5.5 51h2.346l-1.692 4.4C4.969 58.479 4 63.7 4 67v26c0 3.85 3.15 7 7 7s7-3.15 7-7v-4h64v4c0 3.85 3.15 7 7 7s7-3.15 7-7V67c0-3.3-0.97-8.521-2.154-11.6L92.153 51H94.5C97.525 51 100 48.525 100 45.5zM17.691 47.124l5.617-15.247C23.689 30.845 24.9 30 26 30h48c1.1 0 2.312 0.845 2.691 1.876l5.617 15.247C82.688 48.155 82.1 49 81 49H19C17.9 49 17.311 48.155 17.691 47.124zM17.5 72c-3.038 0-5.5-2.465-5.5-5.5s2.462-5.5 5.5-5.5c3.037 0 5.5 2.465 5.5 5.5S20.537 72 17.5 72zM82.5 72c-3.038 0-5.5-2.462-5.5-5.5s2.462-5.5 5.5-5.5 5.5 2.462 5.5 5.5S85.538 72 82.5 72z" data-fill-palette-color="accent"></path></svg></g></svg></g></svg></g><defs></defs></svg><rect width="395.52" height="128.74493143144804" fill="none" stroke="none" visibility="hidden"></rect></g></svg></g></svg>