<?xml version="1.0" encoding="UTF-8" standalone="no"?>
<svg
   version="1.1"
   width="400"
   height="325"
   viewBox="0 0 400 325"
   id="svg11"
   sodipodi:docname="logo-white.svg"
   inkscape:version="1.3.2 (091e20e, 2023-11-25, custom)"
   xmlns:inkscape="http://www.inkscape.org/namespaces/inkscape"
   xmlns:sodipodi="http://sodipodi.sourceforge.net/DTD/sodipodi-0.dtd"
   xmlns="http://www.w3.org/2000/svg"
   xmlns:svg="http://www.w3.org/2000/svg">
  <defs
     id="defs11" />
  <sodipodi:namedview
     id="namedview11"
     pagecolor="#ffffff"
     bordercolor="#000000"
     borderopacity="0.25"
     inkscape:showpageshadow="2"
     inkscape:pageopacity="0.0"
     inkscape:pagecheckerboard="0"
     inkscape:deskcolor="#d1d1d1"
     inkscape:zoom="1.083"
     inkscape:cx="500"
     inkscape:cy="216.52816"
     inkscape:window-width="1600"
     inkscape:window-height="829"
     inkscape:window-x="-8"
     inkscape:window-y="-8"
     inkscape:window-maximized="1"
     inkscape:current-layer="g10" />
  <g
     transform="translate(-0.60606061,-0.32130731)"
     id="g10">
    <svg
       viewBox="0 0 396 129"
       data-background-color="#ffffff"
       preserveAspectRatio="xMidYMid"
       height="325"
       width="1000"
       version="1.1"
       id="svg10">
      <g
         id="tight-bounds"
         transform="translate(0.24,0.12753428)">
        <svg
           viewBox="0 0 395.52 128.74493"
           height="128.74493"
           width="395.51999"
           version="1.1"
           id="svg9">
          <g
             id="g9">
            <svg
               viewBox="0 0 667.62827 217.31836"
               height="128.74493"
               width="395.51999"
               version="1.1"
               id="svg8">
              <g
                 transform="translate(0,7.9412357)"
                 id="g8">
                <svg
                   viewBox="0 0 245.65352 201.43588"
                   height="201.43588"
                   width="245.65352"
                   version="1.1"
                   id="svg7">
                  <g
                     id="g7">
                    <svg
                       version="1.1"
                       x="0"
                       y="0"
                       viewBox="0 18 100 82"
                       enable-background="new 0 0 100 100"
                       xml:space="preserve"
                       height="201.43588"
                       width="245.65352"
                       class="icon-icon-0"
                       data-fill-palette-color="accent"
                       id="icon-0"><path
                         fill="#ffffff"
                         d="M 100,45.5 C 100,42.475 97.525,40 94.5,40 H 87.923 L 83.154,27.6 C 81.969,24.52 78.404,21.258 75.23,20.351 75.23,20.352 67,18 50,18 33,18 24.769,20.352 24.769,20.352 21.596,21.259 18.031,24.52 16.846,27.601 L 12.077,40 H 5.5 C 2.475,40 0,42.475 0,45.5 0,48.525 2.475,51 5.5,51 H 7.846 L 6.154,55.4 C 4.969,58.479 4,63.7 4,67 v 26 c 0,3.85 3.15,7 7,7 3.85,0 7,-3.15 7,-7 v -4 h 64 v 4 c 0,3.85 3.15,7 7,7 3.85,0 7,-3.15 7,-7 V 67 C 96,63.7 95.03,58.479 93.846,55.4 L 92.153,51 H 94.5 c 3.025,0 5.5,-2.475 5.5,-5.5 z M 17.691,47.124 23.308,31.877 C 23.689,30.845 24.9,30 26,30 h 48 c 1.1,0 2.312,0.845 2.691,1.876 l 5.617,15.247 C 82.688,48.155 82.1,49 81,49 H 19 c -1.1,0 -1.689,-0.845 -1.309,-1.876 z M 17.5,72 C 14.462,72 12,69.535 12,66.5 12,63.465 14.462,61 17.5,61 c 3.037,0 5.5,2.465 5.5,5.5 0,3.035 -2.463,5.5 -5.5,5.5 z m 65,0 C 79.462,72 77,69.538 77,66.5 77,63.462 79.462,61 82.5,61 c 3.038,0 5.5,2.462 5.5,5.5 0,3.038 -2.462,5.5 -5.5,5.5 z"
                         data-fill-palette-color="accent"
                         id="path6" /></svg>
                  </g>
                </svg>
              </g>
            </svg>
          </g>
          <defs
             id="defs9" />
        </svg>
        <rect
           width="395.51999"
           height="128.74493"
           fill="none"
           stroke="none"
           visibility="hidden"
           id="rect9"
           x="0"
           y="0" />
      </g>
    </svg>
  </g>
</svg>
